<svg height="80.168747mm" viewBox="0 0 541.86664 80.168745" width="541.86664mm" xmlns="http://www.w3.org/2000/svg"><g transform="translate(185.98628 -99.606308)"><path d="m-.3281481 173.55104v-52.3626h33.0949751v8.08485h-23.5745029v13.374h20.9299269v8.08484h-20.9299269v22.81891zm72.5852781-19.79654q0 4.68468-1.360067 8.5382-1.360068 3.85353-3.853525 6.57366-2.493457 2.72014-6.044744 4.23132-3.475728 1.51119-7.707049 1.51119-4.231321 0-7.707049-1.51119-3.475728-1.51118-5.969185-4.23132-2.493457-2.72013-3.929084-6.57366-1.360067-3.85352-1.360067-8.5382 0-4.68467 1.360067-8.46264 1.435627-3.85352 3.929084-6.57366 2.569017-2.72013 6.044744-4.15576 3.475728-1.51119 7.63149-1.51119 4.155762 0 7.63149 1.51119 3.551287 1.43563 6.044744 4.15576 2.493457 2.72014 3.853524 6.57366 1.435627 3.77797 1.435627 8.46264zm-9.369353 0q0-5.89362-2.569017-9.29379-2.493457-3.47573-7.027015-3.47573-4.533558 0-7.102574 3.47573-2.493457 3.40017-2.493457 9.29379 0 5.96919 2.493457 9.44492 2.569016 3.47572 7.102574 3.47572 4.533558 0 7.027015-3.47572 2.569017-3.47573 2.569017-9.44492zm22.564883-.98227q0 5.81807 2.493457 8.5382 2.569016 2.64458 6.57366 2.64458 2.191219 0 4.080202-.60448 1.964541-.60447 3.173491-1.43562v-20.47657q-.98227-.22668-2.417898-.3778-1.435627-.22668-3.626847-.22668-4.986914 0-7.631489 3.32461-2.644576 3.24905-2.644576 8.61376zm25.46349 16.77417q0 9.44491-4.8358 13.82735-4.76024 4.38244-14.658505 4.38244-3.626846 0-7.102574-.60447-3.400169-.60448-6.195863-1.58675l1.662304-7.78261q2.342339.98227 5.289152 1.58675 3.022372.60447 6.4981.60447 5.515829 0 7.858167-2.26678 2.342339-2.26678 2.342339-6.72478v-1.51118q-1.36007.68003-3.626847 1.36007-2.19122.68003-5.062473.68003-3.777965 0-6.951456-1.20895-3.097932-1.20895-5.364711-3.55129-2.191219-2.34234-3.475728-5.81806-1.208948-3.55129-1.208948-8.16041 0-4.30688 1.284508-7.93372 1.360067-3.62685 3.853524-6.19587 2.569016-2.56901 6.195863-4.00464 3.626847-1.43563 8.235964-1.43563 4.458004 0 8.462644.68004 4.00464.68003 6.80034 1.43562zm56.38817-42.46433q1.20895 4.0802 2.56902 8.5382 1.36006 4.38244 2.79569 8.84044 1.51119 4.38244 2.94681 8.68932 1.51119 4.23132 2.87126 8.00928 1.13339-4.0802 2.19122-8.84043 1.05783-4.8358 2.11566-9.97383 1.05783-5.21359 2.0401-10.5783 1.05783-5.36471 1.96454-10.57831h9.82271q-2.64458 14.20515-5.89363 27.35247-3.24905 13.07176-7.25369 25.01013h-9.06712q-5.89362-15.26298-11.40945-33.32165-2.79569 9.14267-5.66695 17.37864-2.87125 8.23596-5.74251 15.94301h-9.06711q-4.0802-11.93837-7.32925-25.01013-3.1735-13.14732-5.81807-27.35247h10.20051q.90671 5.13804 1.88898 10.50275 1.05783 5.36471 2.11566 10.5783 1.13339 5.13803 2.26678 9.97383 1.13339 4.83579 2.26678 8.91599 1.43562-3.85352 2.87125-8.08484 1.51119-4.30688 2.94681-8.68932 1.43563-4.458 2.72014-8.84044 1.36007-4.38244 2.49345-8.46264zm67.74941 26.67243q0 4.68468-1.36006 8.5382-1.36007 3.85353-3.85353 6.57366-2.49345 2.72014-6.04474 4.23132-3.47573 1.51119-7.70705 1.51119-4.23132 0-7.70705-1.51119-3.47573-1.51118-5.96918-4.23132-2.49346-2.72013-3.92909-6.57366-1.36007-3.85352-1.36007-8.5382 0-4.68467 1.36007-8.46264 1.43563-3.85352 3.92909-6.57366 2.56901-2.72013 6.04474-4.15576 3.47573-1.51119 7.63149-1.51119 4.15576 0 7.63149 1.51119 3.55129 1.43563 6.04474 4.15576 2.49346 2.72014 3.85353 6.57366 1.43562 3.77797 1.43562 8.46264zm-9.36935 0q0-5.89362-2.56902-9.29379-2.49345-3.47573-7.02701-3.47573-4.53356 0-7.10258 3.47573-2.49345 3.40017-2.49345 9.29379 0 5.96919 2.49345 9.44492 2.56902 3.47572 7.10258 3.47572 4.53356 0 7.02701-3.47572 2.56902-3.47573 2.56902-9.44492zm37.90342-11.48501q-1.13339-.3778-3.17349-.75559-1.96454-.45336-4.60912-.45336-1.51119 0-3.24905.30224-1.6623.30223-2.34234.52891v31.65935h-9.14267v-37.62853q2.64457-.98227 6.57366-1.81343 4.00464-.90671 8.84043-.90671.90672 0 2.11567.15112 1.20894.0756 2.41789.30224 1.20895.15112 2.34234.45335 1.13339.22668 1.81342.45336zm13.64892 7.17813q1.73787-1.81342 3.70241-3.85352 1.96454-2.11566 3.85352-4.15576 1.88898-2.11566 3.55129-4.00465 1.73786-1.96454 2.94681-3.40016h10.80498q-3.77796 4.23132-8.00928 8.76487-4.15577 4.53356-8.38709 8.84044 2.26678 1.88899 4.76024 4.60912 2.49346 2.64458 4.83579 5.66695 2.34234 3.02237 4.38244 6.04474 2.04011 3.02237 3.40017 5.59139h-10.5783q-1.36007-2.34234-3.17349-4.91135-1.73786-2.56902-3.77797-4.98692-2.0401-2.4179-4.15576-4.53356-2.11566-2.19122-4.15576-3.7024v18.13423h-9.14267v-57.12283l9.14267-1.51119zm38.96131 17.52976q3.62685 0 5.28915-.83115 1.66231-.90671 1.66231-3.02237 0-1.96455-1.81342-3.24905-1.73787-1.28451-5.81807-2.7957-2.49346-.90671-4.60912-1.88898-2.0401-1.05783-3.55129-2.4179-1.51118-1.36007-2.41789-3.24905-.83116-1.96454-.83116-4.76023 0-5.44027 4.00465-8.53821 4.00464-3.17349 10.88054-3.17349 3.47573 0 6.64922.68004 3.17349.60447 4.76023 1.20895l-1.6623 7.40481q-1.51119-.68004-3.85353-1.20895-2.34234-.60447-5.44027-.60447-2.79569 0-4.53356.98227-1.73786.90671-1.73786 2.87125 0 .98227.30224 1.73786.37779.7556 1.20895 1.43563.83115.60447 2.19122 1.28451 1.36006.60447 3.32461 1.28451 3.24905 1.20895 5.51583 2.41789 2.26677 1.13339 3.7024 2.64458 1.51119 1.43563 2.19122 3.32461.68003 1.88898.68003 4.53356 0 5.66695-4.23132 8.61376-4.15576 2.87125-11.93837 2.87125-5.21359 0-8.38708-.90671-3.17349-.83115-4.458-1.36007l1.58675-7.63149q2.0401.83116 4.83579 1.58675 2.87126.75559 6.4981.75559z" fill="#fff" stroke-width=".53546" transform="scale(1.0709183 .93377801)"/><g fill="#aeff00" stroke-width=".499999"><rect height="17.4625" ry="8.231355" width="114.57153" x="-185.76381" y="130.97443"/><rect height="17.4625" ry="8.008884" width="35.150108" x="-61.848591" y="130.97443"/><rect height="17.4625" ry="8.008884" width="22.024439" x="-154.84062" y="162.12009"/><rect height="17.4625" ry="7.786413" width="63.181198" x="-119.46806" y="162.12009"/><rect height="17.4625" ry="7.786415" width="74.749588" x="-143.71716" y="99.828781"/></g><text style="font-weight:bold;font-size:37.7797;font-family:Ubuntu;letter-spacing:-3.42749;text-anchor:middle;stroke-width:.535458" transform="scale(1.0709183 .93377803)" x="11.027469" y="69.10247"><tspan style="font-weight:500;font-size:75.5593;font-family:Ubuntu;letter-spacing:-3.42749;text-anchor:start;fill:#fff;stroke-width:.53546" x="11.027469" y="69.10247">Fog Works</tspan></text></g></svg>